<svg width="14" height="14" viewBox="0 0 14 14" fill="none" xmlns="http://www.w3.org/2000/svg">
<path d="M6.99375 0.192139C3.12969 0.190577 0 3.3187 0 7.17964C0 10.2328 1.95781 12.8281 4.68437 13.7812C5.05156 13.8734 4.99531 13.6125 4.99531 13.4343V12.2234C2.875 12.4718 2.78906 11.0687 2.64687 10.8343C2.35937 10.3437 1.67969 10.2187 1.88281 9.98433C2.36562 9.73589 2.85781 10.0468 3.42812 10.889C3.84062 11.5 4.64531 11.3968 5.05312 11.2953C5.14219 10.9281 5.33281 10.6 5.59531 10.3453C3.39844 9.95151 2.48281 8.61089 2.48281 7.01714C2.48281 6.2437 2.7375 5.53276 3.2375 4.95933C2.91875 4.01401 3.26719 3.20464 3.31406 3.08433C4.22188 3.00308 5.16562 3.73433 5.23906 3.79214C5.75469 3.65308 6.34375 3.57964 7.00313 3.57964C7.66563 3.57964 8.25625 3.6562 8.77656 3.79683C8.95313 3.66245 9.82812 3.03433 10.6719 3.11089C10.7172 3.2312 11.0578 4.02183 10.7578 4.95464C11.2641 5.52964 11.5219 6.24683 11.5219 7.02183C11.5219 8.6187 10.6 9.96089 8.39688 10.3484C8.58558 10.534 8.73541 10.7553 8.83763 10.9994C8.93984 11.2435 8.99238 11.5056 8.99219 11.7703V13.5281C9.00469 13.6687 8.99219 13.8078 9.22656 13.8078C11.9938 12.875 13.9859 10.2609 13.9859 7.1812C13.9859 3.3187 10.8547 0.192139 6.99375 0.192139V0.192139Z" fill="black"/>
</svg>
